<!DOCTYPE svg PUBLIC "-//W3C//DTD SVG 1.1//EN" "http://www.w3.org/Graphics/SVG/1.1/DTD/svg11.dtd">
<!-- Uploaded to: SVG Repo, www.svgrepo.com, Transformed by: SVG Repo Mixer Tools -->
<svg fill="#F36868" version="1.1" id="Capa_1" xmlns="http://www.w3.org/2000/svg" xmlns:xlink="http://www.w3.org/1999/xlink" width="800px" height="800px" viewBox="0 0 468.613 468.614" xml:space="preserve" stroke="#F36868">
<g id="SVGRepo_bgCarrier" stroke-width="0"/>
<g id="SVGRepo_tracerCarrier" stroke-linecap="round" stroke-linejoin="round"/>
<g id="SVGRepo_iconCarrier"> <g> <g> <path d="M187.947,116.517h-3.498c10.625-12.361,17.099-28.379,17.099-45.916C201.548,31.667,169.869,0,130.952,0 C92.023,0,60.363,31.667,60.363,70.601c0,17.537,6.47,33.555,17.102,45.916h-3.506c-19.651,0-35.627,16-35.627,35.645v117.105 c0,19.647,15.982,35.633,35.627,35.633h1.384v128.07c0,20.332,10.683,35.644,24.872,35.644h61.477 c14.192,0,24.905-15.312,24.905-35.644V304.893h1.363c19.642,0,35.635-15.99,35.635-35.632v-117.1 C223.585,132.511,207.595,116.517,187.947,116.517z"/> <path d="M394.649,116.517h-3.507c10.635-12.361,17.102-28.379,17.102-45.916C408.244,31.667,376.581,0,337.646,0 c-38.911,0-70.593,31.667-70.593,70.601c0,17.537,6.479,33.555,17.102,45.916h-3.488c-19.654,0-35.627,16-35.627,35.645v117.105 c0,19.647,15.985,35.633,35.627,35.633h1.363v128.07c0,20.332,10.7,35.644,24.884,35.644h61.477 c14.195,0,24.896-15.312,24.896-35.644V304.893h1.369c19.635,0,35.626-15.99,35.626-35.632v-117.1 C430.276,132.511,414.291,116.517,394.649,116.517z"/> </g> </g> </g>
</svg>